<svg xmlns="http://www.w3.org/2000/svg" width="12" height="8.7" viewBox="0 0 12 8.7">
  <path id="arrow_right_alt_FILL1_wght400_GRAD0_opsz48" d="M15.25,21.028a.56.56,0,0,1-.172-.41.53.53,0,0,1,.153-.391l2.8-2.8H8.572a.572.572,0,1,1,0-1.145h9.463l-2.824-2.824a.517.517,0,0,1-.162-.4.586.586,0,0,1,.181-.4.6.6,0,0,1,.41-.153.53.53,0,0,1,.391.153l3.8,3.8a.581.581,0,0,1,.134.191.6.6,0,0,1,0,.42.581.581,0,0,1-.134.191l-3.777,3.777a.553.553,0,0,1-.8,0Z" transform="translate(-8 -12.5)" fill="#fff"/>
</svg>
